Patient4_TMGait_0pt8_01_left_49_EMG.mot
version=1
nRows=27
nColumns=33
inDegrees=no
endheader
time	1LAddLong	2LGlutMax	3LGlutMed	4LIliopsoas	5LSemiMemb	6LBicFemLong	7LRecFem	8LVastMed	9LVastLat	10LGasMed	11LTibAnt	12lTibPost	13LPeroneusLong	14LSol	15LExtDigLong	16LFlexDigLong	17RAddLong	18RGlutMax	19RGlutMed	20RIliopsoas	21RSemiMemb	22RBicFemLong	23RRecFem	24RVastMed	25RVastLat	26RGasMed	27RTibAnt	28RTibPost	29RPeroneusLong	30RSol	31RExtDigLong	32RFlexDigLong
54.987	-0.00473	1.1128	-0.006256	0.036011	-0.043182	-0.033417	0.53574	0.036774	-0.6807	-0.22018	-0.006104	0.004272	0.021515	-0.087128	-0.016632	0.010681	0.014801	0.59937	-0.5249	-0.033417	-0.11765	0.02243	1.0207	0.22018	-0.080872	0.015259	0.18692	0.001678	-0.050201	0.054169	-0.003662	-0.009918
54.988	0.006409	1.1977	0.11948	0.007782	0.002747	-0.3122	0.61981	0.027771	-0.71045	-0.37308	-0.022583	0.00351	0.008087	-0.10712	0.002594	-0.001221	0.063171	0.69122	-0.45364	-0.030975	-0.09964	0.049896	1.0196	0.28183	-0.082855	0.01236	0.039063	-0.002899	-0.12222	0.11261	-0.001678	-0.019989
54.989	0.002136	1.2549	0.054626	0.012207	0.020905	-0.31815	0.74753	0.016785	-0.53436	-0.31418	-0.040894	0.12894	0.067139	-0.079651	0.06073	-0.033569	0.081635	0.73608	-0.52719	-0.02655	-0.16693	0.10696	1.073	0.23712	-0.089722	0.008087	0.090942	-0.001678	-0.16663	0.041504	0	-0.021667
54.99	0.003357	1.2523	-0.009308	0.014648	0.014801	-0.094604	0.96237	0.001373	-0.56427	-0.22522	-0.013123	0.066376	0.085144	-0.094147	-0.000763	-0.005493	0.044861	0.74402	-0.59982	-0.1181	-0.15503	0.08194	1.0538	0.14542	-0.082855	0.00946	0.027924	0.002441	-0.11978	-0.066986	-0.004578	-0.024719
54.991	-0.008087	1.3957	0.062866	0.006866	-0.011902	0.031433	1.095	0.001831	-0.52078	-0.17395	0.016174	-0.099945	0.029297	-0.060272	-0.059357	-0.033264	0.083313	0.82581	-0.48966	-0.087128	-0.18387	0.025482	1.0974	0.12421	-0.08255	0.011292	-0.27969	0.00412	-0.11917	-0.091553	-0.004425	-0.020599
54.992	-0.023651	1.4369	0.03006	0.024719	-0.096588	0.1178	1.1292	0.009003	-0.42358	-0.16083	0.037079	-0.001984	-0.027924	0.009308	-0.10391	-0.037842	0.065155	0.86395	-0.6926	-0.023651	-0.24643	0.11063	1.1279	0.11398	-0.08728	0.010071	-0.47638	0.000153	-0.23666	-0.092316	-0.002899	-0.020447
54.993	-0.027161	1.4319	0.074005	0.019531	-0.15701	0.10819	1.0866	0.023346	-0.40146	-0.13519	0.016174	-0.015564	0.056458	-0.026245	-0.13702	-0.023041	0.014343	0.923	-0.82642	-0.005035	-0.3064	0.10727	1.1627	0.11169	-0.085144	0.014343	-0.50339	0.001373	-0.14771	-0.095978	-0.005188	-0.018921
54.994	-0.033417	1.4413	0.12466	0.008545	-0.13626	0.21316	0.99731	0.037231	-0.35446	-0.067749	0.021057	0.32532	0.095673	0.079651	-0.1294	0.036011	-0.011597	0.95169	-0.65887	0.032501	-0.32989	0.10788	1.1967	0.093536	-0.08728	0.02182	0.47195	0.004425	-0.005035	-0.13672	-0.005341	-0.009766
54.995	-0.023346	1.4275	0.092316	-0.016785	-0.05127	0.21988	0.88806	0.041656	-0.31433	-0.027161	0.038147	0.31845	0.031128	0.02655	-0.11154	0.049286	-0.038605	1.0013	-0.64179	0.13916	-0.32303	0.14099	1.1606	0.084381	-0.075531	0.022888	0.78857	0.005341	0.061188	-0.1593	-0.002747	-0.014954
54.996	0.006409	1.4149	0.085144	-0.030518	-0.00946	-0.11841	0.70129	0.041046	-0.2977	-0.045929	0.021515	-0.12146	0.19348	0.014343	-0.003204	0.043335	-0.085449	1.0732	-0.70892	0.11856	-0.32044	0.14648	1.1353	0.08316	-0.057983	0.017242	0.61798	0.003357	-0.008698	-0.092163	-0.001678	-0.002747
54.997	0.006409	1.3901	-0.002136	0.00885	0.003357	-0.3302	0.62622	0.025635	-0.23621	-0.050812	-0.002594	0.12985	0.19669	0.025024	0.1297	0.045929	-0.10498	1.1295	-0.76111	0.16235	-0.26428	0.0177	1.1281	0.007935	-0.075226	0.006256	0.41748	0.002289	-0.026703	-0.12573	-0.002289	-0.003052
54.998	0.012512	1.3866	0.007629	0.031281	-0.099182	-0.24963	0.54153	0.006714	-0.1651	-0.012207	-0.018311	-0.007782	-0.13641	0.087738	0.17502	0.059662	-0.066376	1.171	-0.70267	0.19623	-0.19913	-0.096283	1.1238	0.015411	-0.078278	0.008087	-0.42496	0.002594	-0.12955	0.022125	-0.002441	-0.008698
54.999	0.019379	1.2848	0.059662	0.032959	-0.10498	-0.21683	0.45929	-0.018768	-0.10071	-0.055237	-0.008698	-0.061493	0.3775	0.044861	0.036163	0.06073	-0.035553	1.2502	-0.51895	0.070648	-0.13458	0.018768	1.0887	-0.07431	-0.10681	0.008087	-0.010223	0.000916	-0.26337	0.13947	0.003357	-0.010834
55	0.024719	1.2526	0.17807	0.014038	-0.016479	-0.25665	0.30029	-0.015717	-0.11993	-0.085449	-0.002899	0.0354	0.27542	-0.057068	0.026703	0.068054	-0.018768	1.3887	-0.44342	-0.076141	-0.059357	-0.001984	1.0226	-0.08194	-0.10147	0.017395	0.12268	0.002899	-0.15167	-0.011597	-0.004578	-0.016174
55.001	0.024719	1.2222	0.16174	0.008545	0.000305	-0.23178	0.16556	0.007324	-0.16632	-0.089417	-0.002136	0.056305	0.10635	-0.079803	0.074463	0.062866	-0.040283	1.4067	-0.051117	-0.13123	-0.057526	-0.11429	1.0919	-0.066071	-0.099792	0.010986	0.12039	0.002441	-0.091553	-0.13275	0.001526	-0.01297
55.002	0.015564	1.2514	0.13489	0.014343	-0.029602	-0.042267	0.031586	0.023041	-0.20004	-0.088043	0.00351	0.057526	0.091705	-0.121	0.02655	0.069275	-0.052032	1.4522	-0.21896	-0.11169	-0.090179	-0.096436	1.08	-0.075226	-0.075989	0.006256	0.042267	0.002136	-0.023956	-0.10269	-0.003204	-0.022125
55.003	0.010071	1.2575	0.10696	-0.009766	-0.099335	0.16861	-0.11261	0.035553	-0.2092	-0.080414	0.002289	0.078583	-0.028381	-0.15839	-0.001831	0.062256	-0.007172	1.4914	-0.86594	-0.14267	-0.089722	-0.010681	1.0081	-0.083771	-0.064697	0.002136	-0.092316	0.001373	0.078583	-0.10437	-0.001373	-0.022888
55.004	-0.010071	1.2511	0.1004	-0.006104	-0.15106	0.28412	-0.16769	0.048218	-0.20905	0.074463	0.00824	0.087738	0.14236	-0.071259	0.014038	0.053101	-0.001526	1.5227	-1.2666	-0.084991	-0.10132	0.028992	1.0042	-0.032349	-0.065613	0.004578	-0.010223	0.00061	0.018463	-0.12009	-0.001984	-0.028076
55.005	-0.007019	1.23	0.1236	0.009918	-0.099182	0.21866	-0.33066	0.046844	-0.18738	0.12009	0.021057	0.085449	0.15869	-0.074768	0.025787	0.052032	-0.025787	1.6571	-1.131	-0.098724	-0.12528	-0.026855	0.914	-0.072021	-0.059052	0.002289	0.29434	-0.000916	-0.066376	-0.071106	-0.000916	-0.028381
55.006	0.010529	1.1375	0.037994	0.021362	-0.003204	0.043488	-0.45822	0.017548	-0.12619	-0.00885	0.021057	0.10849	-0.091248	-0.01297	0.045776	0.03891	-0.008545	1.7514	-0.72754	-0.11261	-0.12207	-0.032654	0.82001	-0.09491	-0.043945	-0.001068	0.11673	0	-0.063629	-0.085449	-0.001678	-0.029755
55.007	0.018005	1.0237	-0.020294	0.025024	0.15106	-0.1413	-0.51498	0.011597	-0.096588	-0.17822	-0.000153	0.1268	-0.28442	0.065765	0.028687	0.041809	0.027924	1.7845	-0.52658	0.054321	-0.11078	-0.060272	0.84824	-0.08255	-0.030518	0.00946	0.16953	0.001984	-0.059509	-0.095062	-0.001373	-0.033875
55.008	0.023956	0.82962	-0.18692	0.019379	0.088654	-0.072937	-0.51239	0.014496	-0.050049	-0.11948	0.00351	0.1326	-0.16174	0.13718	-0.030212	0.052185	0.040588	1.7508	-0.91599	0.11826	-0.11322	0.006866	0.86258	-0.081177	-0.047913	0.004883	0.14343	-0.006714	-0.010986	-0.063171	0.000763	-0.025024
55.009	0.033264	0.74982	-0.17975	0.008545	0.002289	0.060577	-0.55542	0.021515	-0.016632	0.000305	0.010223	0.13794	0.021973	0.050354	0.012512	0.034027	0.039673	1.8283	-1.006	0.017853	-0.16174	0.061646	0.78445	-0.21744	-0.069885	0.003204	0.076904	-0.006866	-0.027466	0.058441	-0.005341	-0.02533
55.01	0.023499	0.63049	-0.15579	-0.005188	-0.027161	0.051727	-0.58807	0.014801	0.031281	0.23224	0.016479	0.12543	0.10574	0.033722	-0.000916	-0.001526	0.024719	1.8765	-0.84015	-0.032806	-0.19424	0.28748	0.61768	-0.25375	-0.050812	0.003357	0.075073	-0.002136	-0.062866	0.036163	-0.002289	-0.024109
55.011	0.016174	0.53635	-0.10941	-0.018005	-0.036469	0.13229	-0.58502	-0.002747	0.078735	0.35523	0.016174	0.14816	0.034332	0.016327	-0.021515	-0.054321	0.0177	1.9669	-0.737	0.06073	-0.16296	0.43304	0.70419	-0.35919	-0.081482	0.008698	-0.063782	-0.001984	-0.022736	0.027313	-0.001526	-0.020752
55.012	0.016937	0.50369	-0.062714	-0.000763	-0.057373	0.29221	-0.58105	-0.004425	0.057068	0.22492	0.015259	0.17716	-0.15961	0.095367	-0.009003	-0.019073	0.03006	2.0354	-0.67459	0.10513	-0.11093	0.27847	0.74127	-0.35568	-0.088043	0.004425	-0.028992	-0.003204	-0.051422	0.066071	-0.001526	-0.02182
55.013	0.022125	0.42954	-0.090942	-0.0177	-0.034943	0.34409	-0.57037	-0.008392	-0.076904	0.28641	0.027161	0.26215	-0.3273	0.18478	-0.00885	0.089722	0.022583	2.0233	-0.60043	0.042725	-0.16327	0.21454	0.76492	-0.41077	-0.069427	0.001373	0.10071	0.000153	-0.06546	0.001068	-0.002594	-0.012054
